<svg id="Layer_1" data-name="Layer 1" xmlns="http://www.w3.org/2000/svg" viewBox="0 0 300 100"><defs><style>.cls-1{fill:#4eb575;}.cls-2{fill:#1a2f5a;}.cls-3{fill:#959595;}</style></defs><title>Artboard 1</title><polygon class="cls-1" points="10.73 29.43 10.73 8.48 4.62 8.48 4.62 34.28 18.73 34.28 18.73 29.43 10.73 29.43"/><path class="cls-1" d="M64.27,32.23a11.61,11.61,0,0,0,4.25-6.6H61.8a5.53,5.53,0,0,1-2.12,2.46A6.18,6.18,0,0,1,52,26.92a8,8,0,0,1-1.75-5.4A8,8,0,0,1,52,16.11a6.18,6.18,0,0,1,7.7-1.17A5.53,5.53,0,0,1,61.8,17.4h6.72a11.73,11.73,0,0,0-4.25-6.62,12.28,12.28,0,0,0-7.65-2.42A12.78,12.78,0,0,0,50.1,10a11.71,11.71,0,0,0-4.48,4.67A14.22,14.22,0,0,0,44,21.52a14.14,14.14,0,0,0,1.61,6.8A11.79,11.79,0,0,0,50.1,33a12.78,12.78,0,0,0,6.52,1.67A12.34,12.34,0,0,0,64.27,32.23Z"/><polygon class="cls-1" points="42.79 8.48 35.93 8.48 31.11 19.29 26.25 8.48 19.32 8.48 28 25.75 28 34.28 34.11 34.28 34.11 25.75 42.79 8.48"/><rect class="cls-1" x="72.11" y="8.47" width="25.08" height="6.27"/><rect class="cls-1" x="72.11" y="18.24" width="25.08" height="6.27"/><rect class="cls-1" x="72.11" y="28.01" width="25.08" height="6.27"/><path class="cls-2" d="M139,44.47a5.75,5.75,0,0,1,3.12.85,5.48,5.48,0,0,1,2.13,2.46h6.71a11.68,11.68,0,0,0-4.25-6.62A12.26,12.26,0,0,0,139,38.74a12.78,12.78,0,0,0-6.52,1.67A11.65,11.65,0,0,0,128,45.08a15.21,15.21,0,0,0,0,13.62,11.72,11.72,0,0,0,4.48,4.65A12.78,12.78,0,0,0,139,65a12.25,12.25,0,0,0,7.64-2.41,11.53,11.53,0,0,0,4.25-6.6H144.2a5.56,5.56,0,0,1-2.13,2.47,5.83,5.83,0,0,1-3.12.84,5.74,5.74,0,0,1-4.57-2,8,8,0,0,1-1.75-5.4,8,8,0,0,1,1.75-5.41A5.77,5.77,0,0,1,139,44.47Z"/><polygon class="cls-2" points="170.27 49.14 160.77 49.14 160.77 39.03 154.67 39.03 154.67 64.83 160.77 64.83 160.77 54.21 170.27 54.21 170.27 64.83 176.38 64.83 176.38 39.03 170.27 39.03 170.27 49.14"/><polygon class="cls-2" points="197.1 55.02 186.88 39.03 180.78 39.03 180.78 64.83 186.88 64.83 186.88 48.92 197.1 64.83 203.21 64.83 203.21 39.03 197.1 39.03 197.1 55.02"/><rect class="cls-2" x="207.64" y="39.03" width="6.11" height="25.8"/><path class="cls-2" d="M241.55,57.91a13.92,13.92,0,0,0,1.3-6,13.64,13.64,0,0,0-1.69-6.8,12.24,12.24,0,0,0-4.65-4.71,13.27,13.27,0,0,0-13,0,12.45,12.45,0,0,0-4.68,4.71,14.27,14.27,0,0,0,0,13.62,12.41,12.41,0,0,0,4.68,4.72A12.74,12.74,0,0,0,230,65.09a14.38,14.38,0,0,0,2.79-.29L236,69.24h7.4l-5.51-6.79A12.44,12.44,0,0,0,241.55,57.91Zm-6.72-.61a6.07,6.07,0,0,1-4.8,2.06,6.14,6.14,0,0,1-4.84-2,8,8,0,0,1-1.8-5.46,8,8,0,0,1,1.8-5.48,6.19,6.19,0,0,1,4.84-2,6.08,6.08,0,0,1,4.8,2,7.91,7.91,0,0,1,1.81,5.46A7.93,7.93,0,0,1,234.83,57.3Z"/><path class="cls-2" d="M261.11,54.47A5,5,0,0,1,260,58a4.19,4.19,0,0,1-3.28,1.25A4.08,4.08,0,0,1,253.43,58a5.18,5.18,0,0,1-1.11-3.56V39h-6.11v15.4a11.74,11.74,0,0,0,1.36,5.87,8.79,8.79,0,0,0,3.7,3.6,11.52,11.52,0,0,0,5.3,1.19A11.79,11.79,0,0,0,262,63.88a9.36,9.36,0,0,0,3.84-3.6,11.25,11.25,0,0,0,1.43-5.85V39h-6.11Z"/><rect class="cls-2" x="270.92" y="39.05" width="25.08" height="6.27"/><rect class="cls-2" x="270.92" y="48.82" width="25.08" height="6.27"/><rect class="cls-2" x="270.92" y="58.59" width="25.08" height="6.27"/><rect class="cls-2" x="98.73" y="38.95" width="25.08" height="6.27"/><rect class="cls-2" x="98.73" y="48.72" width="25.08" height="6.27"/><rect class="cls-2" x="98.73" y="58.49" width="25.08" height="6.27"/><rect class="cls-2" x="71.67" y="39.05" width="25.08" height="6.27"/><rect class="cls-2" x="81.16" y="48.72" width="6.1" height="16.04"/><path class="cls-3" d="M75.83,68.52v12.9h-3V68.52Z"/><path class="cls-3" d="M87.39,75.92A3.44,3.44,0,0,1,87,80.47a4.49,4.49,0,0,1-3.06,1H78.05V68.52h5.64a4.54,4.54,0,0,1,3,.9,3.34,3.34,0,0,1,.5,4.34,3,3,0,0,1-1.54,1A2.9,2.9,0,0,1,87.39,75.92ZM81.1,73.74h2a1.72,1.72,0,0,0,1.15-.34,1.23,1.23,0,0,0,.4-1,1.25,1.25,0,0,0-.4-1A1.67,1.67,0,0,0,83.1,71h-2Zm3.44,4.79a1.3,1.3,0,0,0,.42-1,1.37,1.37,0,0,0-.44-1.07,1.78,1.78,0,0,0-1.2-.38H81.1v2.84h2.25A1.78,1.78,0,0,0,84.54,78.53Z"/><path class="cls-3" d="M101,81.42H98l-5.11-8v8H89.82V68.52h3.05l5.11,8v-8h3Z"/><path class="cls-3" d="M114.84,79.14h-4.68l-.75,2.28h-3.2l4.54-12.9h3.53l4.54,12.9h-3.23Zm-.79-2.42L112.5,72,111,76.72Z"/><path class="cls-3" d="M123.25,79h4v2.42h-7V68.52h3Z"/><path class="cls-3" d="M139.57,68.52v12.9h-3V76.11h-4.75v5.31h-3.06V68.52h3.06v5h4.75v-5Z"/><path class="cls-3" d="M149.57,79.14h-4.68l-.75,2.28H141l4.53-12.9H149l4.54,12.9h-3.24Zm-.78-2.42L147.23,72l-1.53,4.73Z"/><path class="cls-3" d="M165.68,68.52l-4.34,8.64v4.26h-3.05V77.16L154,68.52h3.46l2.43,5.4,2.41-5.4Z"/><path class="cls-3" d="M175.93,68.52V71h-3.32V81.42h-3.05V71h-3.32V68.52Z"/><path class="cls-3" d="M185.27,79.14h-4.68l-.75,2.28h-3.19l4.53-12.9h3.54l4.54,12.9H186Zm-.78-2.42L182.93,72l-1.53,4.73Z"/><path class="cls-3" d="M204.83,68.52v12.9h-3.05V73.68L199,81.42h-2.46l-2.82-7.75v7.75h-3.06V68.52h3.61l3.52,8.93,3.48-8.93Z"/></svg>