<svg xmlns="http://www.w3.org/2000/svg" width="271.882" height="83" viewBox="0 0 271.882 83">
  <g id="Group_15" data-name="Group 15" transform="translate(-15 -55)">
    <g id="LOGO" transform="translate(584.118 -2208.17)">
      <text id="LYC" transform="translate(-569.118 2297.17)" fill="#4eb575" font-size="32" font-family="Poppins-Bold, Poppins" font-weight="700"><tspan x="0" y="0">LYC</tspan></text>
      <rect id="Rectangle_695" data-name="Rectangle 695" width="22.461" height="6.047" transform="translate(-506.475 2273.76)" fill="#4eb575"/>
      <rect id="Rectangle_696" data-name="Rectangle 696" width="22.461" height="6.047" transform="translate(-506.475 2291.037)" fill="#4eb575"/>
      <rect id="Rectangle_697" data-name="Rectangle 697" width="22.461" height="6.047" transform="translate(-506.475 2282.398)" fill="#4eb575"/>
      <rect id="Rectangle_698" data-name="Rectangle 698" width="22.461" height="6.047" transform="translate(-478.831 2273.76)" fill="#4eb575"/>
      <rect id="Rectangle_699" data-name="Rectangle 699" width="22.461" height="6.047" transform="translate(-478.831 2291.037)" fill="#4eb575"/>
      <rect id="Rectangle_700" data-name="Rectangle 700" width="22.461" height="6.047" transform="translate(-478.831 2282.398)" fill="#4eb575"/>
      <rect id="Rectangle_701" data-name="Rectangle 701" width="22.461" height="6.047" transform="translate(-506.475 2299.676)" fill="#1a2f5a"/>
      <rect id="Rectangle_702" data-name="Rectangle 702" width="15.55" height="6.047" transform="translate(-492.221 2307.018) rotate(90)" fill="#1a2f5a"/>
      <rect id="Rectangle_703" data-name="Rectangle 703" width="22.461" height="6.047" transform="translate(-478.831 2299.676)" fill="#1a2f5a"/>
      <rect id="Rectangle_704" data-name="Rectangle 704" width="22.461" height="6.047" transform="translate(-478.831 2316.953)" fill="#1a2f5a"/>
      <rect id="Rectangle_705" data-name="Rectangle 705" width="22.461" height="6.047" transform="translate(-478.831 2308.314)" fill="#1a2f5a"/>
      <text id="CHNIQU" transform="translate(-455.118 2323.17)" fill="#1a2f5a" font-size="33" font-family="Poppins-Bold, Poppins" font-weight="700"><tspan x="0" y="0">CHNIQU</tspan></text>
      <rect id="Rectangle_706" data-name="Rectangle 706" width="22.461" height="6.047" transform="translate(-319.696 2299.676)" fill="#1a2f5a"/>
      <rect id="Rectangle_707" data-name="Rectangle 707" width="22.461" height="6.047" transform="translate(-319.696 2316.953)" fill="#1a2f5a"/>
      <rect id="Rectangle_708" data-name="Rectangle 708" width="22.461" height="6.047" transform="translate(-319.696 2308.314)" fill="#1a2f5a"/>
    </g>
    <text id="IBN_ALHAITAM" data-name="IBN ALHAITAM" transform="translate(143 131)" fill="#959595" font-size="20" font-family="Poppins-Regular, Poppins"><tspan x="-66.23" y="0">IBN ALHAITAM</tspan></text>
  </g>
</svg>
